<svg id="그룹_7" data-name="그룹 7" xmlns="http://www.w3.org/2000/svg" width="144" height="22.118" viewBox="0 0 144 22.118">
  <path id="Icon_ionic-md-star" data-name="Icon ionic-md-star" d="M15.432,22.28l7.19,4.338-1.9-8.183,6.347-5.5L18.7,12.214,15.432,4.5l-3.268,7.714L3.8,12.933l6.347,5.5-1.9,8.183Z" transform="translate(56.127 -4.5)" fill="#566270"/>
  <path id="Icon_ionic-md-star-2" data-name="Icon ionic-md-star" d="M15.432,22.28l7.19,4.338-1.9-8.183,6.347-5.5L18.7,12.214,15.432,4.5l-3.268,7.714L3.8,12.933l6.347,5.5-1.9,8.183Z" transform="translate(26.165 -4.5)" fill="#566270"/>
  <path id="Icon_ionic-md-star-3" data-name="Icon ionic-md-star" d="M15.432,22.28l7.19,4.338-1.9-8.183,6.347-5.5L18.7,12.214,15.432,4.5l-3.268,7.714L3.8,12.933l6.347,5.5-1.9,8.183Z" transform="translate(-3.797 -4.5)" fill="#566270"/>
  <path id="Icon_ionic-md-star-4" data-name="Icon ionic-md-star" d="M15.432,22.28l7.19,4.338-1.9-8.183,6.347-5.5L18.7,12.214,15.432,4.5l-3.268,7.714L3.8,12.933l6.347,5.5-1.9,8.183Z" transform="translate(116.933 -4.5)" fill="#566270"/>
  <path id="Icon_ionic-md-star-5" data-name="Icon ionic-md-star" d="M15.432,22.28l7.19,4.338-1.9-8.183,6.347-5.5L18.7,12.214,15.432,4.5l-3.268,7.714L3.8,12.933l6.347,5.5-1.9,8.183Z" transform="translate(86.53 -4.5)" fill="#566270"/>
</svg>
