<svg xmlns="http://www.w3.org/2000/svg" width="144" height="22.118" viewBox="0 0 144 22.118">
  <g id="그룹_7" data-name="그룹 7" transform="translate(-2.171)">
    <path id="Icon_ionic-md-star-outline" data-name="Icon ionic-md-star-outline" d="M27.067,12.933,18.7,12.214,15.432,4.5l-3.268,7.714L3.8,12.933l6.347,5.5-1.9,8.183,7.191-4.338,7.19,4.338-1.9-8.183ZM16.384,20.7l-.952-.574-.952.574-3.455,2.085.915-3.934.252-1.082-.84-.728L8.3,14.4l4.022-.345,1.106-.1.433-1.022,1.571-3.708L17,12.933l.433,1.022,1.106.1,4.023.345-3.052,2.646-.84.728.252,1.082.914,3.934Z" transform="translate(119.104 -4.5)" fill="#566270"/>
    <path id="Icon_ionic-md-star-outline-2" data-name="Icon ionic-md-star-outline" d="M27.067,12.933,18.7,12.214,15.432,4.5l-3.268,7.714L3.8,12.933l6.347,5.5-1.9,8.183,7.191-4.338,7.19,4.338-1.9-8.183ZM16.384,20.7l-.952-.574-.952.574-3.455,2.085.915-3.934.252-1.082-.84-.728L8.3,14.4l4.022-.345,1.106-.1.433-1.022,1.571-3.708L17,12.933l.433,1.022,1.106.1,4.023.345-3.052,2.646-.84.728.252,1.082.914,3.934Z" transform="translate(88.922 -4.5)" fill="#566270"/>
    <path id="Icon_ionic-md-star-outline-3" data-name="Icon ionic-md-star-outline" d="M27.067,12.933,18.7,12.214,15.432,4.5l-3.268,7.714L3.8,12.933l6.347,5.5-1.9,8.183,7.191-4.338,7.19,4.338-1.9-8.183ZM16.384,20.7l-.952-.574-.952.574-3.455,2.085.915-3.934.252-1.082-.84-.728L8.3,14.4l4.022-.345,1.106-.1.433-1.022,1.571-3.708L17,12.933l.433,1.022,1.106.1,4.023.345-3.052,2.646-.84.728.252,1.082.914,3.934Z" transform="translate(28.556 -4.5)" fill="#566270"/>
    <path id="Icon_ionic-md-star-outline-4" data-name="Icon ionic-md-star-outline" d="M27.067,12.933,18.7,12.214,15.432,4.5l-3.268,7.714L3.8,12.933l6.347,5.5-1.9,8.183,7.191-4.338,7.19,4.338-1.9-8.183ZM16.384,20.7l-.952-.574-.952.574-3.455,2.085.915-3.934.252-1.082-.84-.728L8.3,14.4l4.022-.345,1.106-.1.433-1.022,1.571-3.708L17,12.933l.433,1.022,1.106.1,4.023.345-3.052,2.646-.84.728.252,1.082.914,3.934Z" transform="translate(58.739 -4.5)" fill="#566270"/>
    <path id="Icon_ionic-md-star-outline-5" data-name="Icon ionic-md-star-outline" d="M27.067,12.933,18.7,12.214,15.432,4.5l-3.268,7.714L3.8,12.933l6.347,5.5-1.9,8.183,7.191-4.338,7.19,4.338-1.9-8.183ZM16.384,20.7l-.952-.574-.952.574-3.455,2.085.915-3.934.252-1.082-.84-.728L8.3,14.4l4.022-.345,1.106-.1.433-1.022,1.571-3.708L17,12.933l.433,1.022,1.106.1,4.023.345-3.052,2.646-.84.728.252,1.082.914,3.934Z" transform="translate(-1.626 -4.5)" fill="#566270"/>
  </g>
</svg>
