<svg xmlns="http://www.w3.org/2000/svg" width="54.159" height="54.271" viewBox="0 0 54.159 54.271">
  <path id="Icon_awesome-calendar-alt" data-name="Icon awesome-calendar-alt" d="M0,49.184c0,2.809,2.6,5.088,5.8,5.088H48.356c3.2,0,5.8-2.279,5.8-5.088V20.352H0ZM38.685,28.408a1.374,1.374,0,0,1,1.451-1.272h4.836a1.374,1.374,0,0,1,1.451,1.272v4.24a1.374,1.374,0,0,1-1.451,1.272H40.136a1.374,1.374,0,0,1-1.451-1.272Zm0,13.568A1.374,1.374,0,0,1,40.136,40.7h4.836a1.374,1.374,0,0,1,1.451,1.272v4.24a1.374,1.374,0,0,1-1.451,1.272H40.136a1.374,1.374,0,0,1-1.451-1.272ZM23.211,28.408a1.374,1.374,0,0,1,1.451-1.272H29.5a1.374,1.374,0,0,1,1.451,1.272v4.24A1.374,1.374,0,0,1,29.5,33.92H24.662a1.374,1.374,0,0,1-1.451-1.272Zm0,13.568A1.374,1.374,0,0,1,24.662,40.7H29.5a1.374,1.374,0,0,1,1.451,1.272v4.24A1.374,1.374,0,0,1,29.5,47.488H24.662a1.374,1.374,0,0,1-1.451-1.272ZM7.737,28.408a1.374,1.374,0,0,1,1.451-1.272h4.836a1.374,1.374,0,0,1,1.451,1.272v4.24a1.374,1.374,0,0,1-1.451,1.272H9.188a1.374,1.374,0,0,1-1.451-1.272Zm0,13.568A1.374,1.374,0,0,1,9.188,40.7h4.836a1.374,1.374,0,0,1,1.451,1.272v4.24a1.374,1.374,0,0,1-1.451,1.272H9.188a1.374,1.374,0,0,1-1.451-1.272ZM48.356,6.784h-5.8V1.7A1.832,1.832,0,0,0,40.619,0H36.751a1.832,1.832,0,0,0-1.934,1.7V6.784H19.342V1.7A1.832,1.832,0,0,0,17.408,0H13.54a1.832,1.832,0,0,0-1.934,1.7V6.784H5.8C2.6,6.784,0,9.063,0,11.872V16.96H54.159V11.872C54.159,9.063,51.56,6.784,48.356,6.784Z" fill="#fffff3"/>
</svg>
