<svg xmlns="http://www.w3.org/2000/svg" width="22" height="22" viewBox="0 0 22 22">
  <path id="Icon_ionic-md-star-outline" data-name="Icon ionic-md-star-outline" d="M25.8,12.888l-7.911-.715L14.8,4.5l-3.09,7.673-7.91.715,6,5.473L8,26.5l6.8-4.315,6.8,4.315-1.8-8.139ZM15.7,20.615l-.9-.571-.9.571L10.63,22.689l.865-3.913.238-1.077-.794-.724L8.053,14.344l3.8-.344,1.046-.095.41-1.017L14.8,9.2l1.485,3.688.41,1.017L17.737,14l3.8.344-2.886,2.632-.794.724.238,1.076.864,3.913Z" transform="translate(-3.797 -4.5)" fill="#566270"/>
</svg>
